<?xml version="1.0" encoding="UTF-8"?>
<svg id="Layer_1" xmlns="http://www.w3.org/2000/svg" version="1.1" viewBox="0 0 512 512">
  <!-- Generator: Adobe Illustrator 30.6.0, SVG Export Plug-In . SVG Version: 2.1.4 Build 109)  -->
  <defs>
    <style>
      .st0 {
        fill: #3e7eef;
      }

      .st1 {
        fill: #3e7ff0;
      }

      .st2 {
        fill: #3c7cef;
      }

      .st3 {
        fill: #eef0f1;
      }
    </style>
  </defs>
  <rect class="st3" y="0" width="512" height="512" rx="122.58" ry="122.58"/>
  <g>
    <path d="M125.81,398.94c0,5.13-3.57,8.91-8.41,9.25-4.38.31-9.3-3.12-9.3-8.12l-.07-160.65c-13.57-3.01-24.77-12.88-29.99-25.73-3.61-9.78-3.67-20.55.13-30.12,8.43-21.21,32.1-31.91,53.53-23.88,11.89,4.46,21.31,14.19,25.12,26.46,2.85,9.17,2.54,19.01-1.05,27.86-5.16,12.73-16.34,22.57-29.96,25.37v159.56Z"/>
    <circle class="st3" cx="117.03" cy="198.63" r="23.76"/>
  </g>
  <g>
    <path class="st1" d="M383.4,282.43l-.02-91.5c0-5.2-.63-9.99-2.29-14.79-3.96-12.23-15.63-19.73-28.44-19.13l-91.13-.04-1.38-.03c0-.38.08-.64.3-1.04,4.73-8.23,10.64-15.58,17.62-22.12,11.56-10.84,25.86-18.48,41.3-22.15,29.97-7.12,61.73,1.03,84.19,22.05,7.89,7.38,14.59,15.87,19.44,25.53,12.4,24.75,13.7,52.66,2.62,78.15-4.16,9.57-9.94,18.07-16.98,25.75-3.31,3.61-6.75,6.66-10.55,9.73-4.6,3.72-9.37,6.98-14.67,9.58Z"/>
    <g>
      <path d="M260.14,156.95c.02-.26.13-.46.39-.49l93.53.02c19.09-.07,30.64,16.25,29.83,34.45l.02,90.81c-.04.25-.21.48-.5.69l-.06,111.88c0,7.45-6.23,13.79-13.45,13.81l-28.55.08c-7.22-.68-13.03-6.46-13.07-13.75l-.09-15.8h-94.32s-.06,15.7-.06,15.7c-.03,7.93-6.62,13.84-14.46,13.87l-28.03-.2c-6.93-.34-12.83-6.71-12.83-13.83l-.04-203.28c0-5.07,1.4-10.09,3.36-14.59,4.97-11.39,16-19.35,28.57-19.36l49.76-.03Z"/>
      <g>
        <g>
          <path class="st0" d="M296.94,281.95l-1.84-.46c-24.6-14.2-43.4-40.35-46.47-68.94-.1-.91.18-.49,0-.4-.34.16-1.11-.28-.79-.77h117.73s0,70.58,0,70.58h-68.65Z"/>
          <path class="st2" d="M248.82,193.64c-.11-.3-.2-.6-.26-.9s-.11-.6-.08-.89c.39-5.03,1.57-10.62,3.04-15.45.08-.28.24-.53.41-.79s.37-.5.58-.74h102.05c5.53,0,9.43,3.98,10.4,9.2.58,3.14.74,6.31.59,9.57h-116.72Z"/>
        </g>
        <g>
          <path class="st3" d="M247.85,211.37c.28.28.74.23,1.18.32,2.1,19.26,11.54,38.91,25.08,52.65l2.4,2.43c6.2,5.88,12.98,11.08,20.43,15.18h-100.64s0-70.58,0-70.58h51.56Z"/>
          <path class="st3" d="M252.5,174.87c-1.91,6.13-3.18,12.39-3.68,18.77l-52.48.03c-.62-10.07,4.57-18.82,15.06-18.82l41.1.02Z"/>
          <rect class="st3" x="200.53" y="374.41" width="11.34" height="19.8" transform="translate(-178.18 590.37) rotate(-89.98)"/>
          <rect class="st3" x="349.96" y="374.51" width="11.34" height="19.59" transform="translate(-28.76 739.85) rotate(-89.99)"/>
          <g>
            <rect class="st3" x="196.3" y="299.89" width="169.14" height="60.98"/>
            <g>
              <circle cx="330.22" cy="330.26" r="25.34"/>
              <circle class="st3" cx="330.18" cy="330.23" r="7.45"/>
            </g>
            <g>
              <circle cx="231.77" cy="330.24" r="25.36"/>
              <circle class="st3" cx="231.79" cy="330.21" r="7.46"/>
            </g>
          </g>
        </g>
      </g>
    </g>
  </g>
</svg>